<?xml version="1.0" encoding="UTF-8" standalone="no"?>
<!-- Created with Inkscape (http://www.inkscape.org/) -->

<svg
   xmlns:dc="http://purl.org/dc/elements/1.1/"
   xmlns:cc="http://creativecommons.org/ns#"
   xmlns:rdf="http://www.w3.org/1999/02/22-rdf-syntax-ns#"
   xmlns:svg="http://www.w3.org/2000/svg"
   xmlns="http://www.w3.org/2000/svg"
   xmlns:xlink="http://www.w3.org/1999/xlink"
   xmlns:sodipodi="http://sodipodi.sourceforge.net/DTD/sodipodi-0.dtd"
   xmlns:inkscape="http://www.inkscape.org/namespaces/inkscape"
   width="800pt"
   height="600pt"
   viewBox="0 0 282.22224 211.66667"
   version="1.1"
   id="svg2981"
   inkscape:version="0.92.2 5c3e80d, 2017-08-06"
   sodipodi:docname="bg_one.svg"
   inkscape:export-filename="/Users/Dillon/projects/happy_zig/bg_one.png"
   inkscape:export-xdpi="96"
   inkscape:export-ydpi="96">
  <defs
     id="defs2975">
    <linearGradient
       inkscape:collect="always"
       id="linearGradient13271">
      <stop
         style="stop-color:#022175;stop-opacity:1;"
         offset="0"
         id="stop13267" />
      <stop
         style="stop-color:#022175;stop-opacity:0;"
         offset="1"
         id="stop13269" />
    </linearGradient>
    <linearGradient
       inkscape:collect="always"
       xlink:href="#linearGradient13271"
       id="linearGradient13273"
       x1="-309.09521"
       y1="98.651794"
       x2="7.6488342"
       y2="98.651794"
       gradientUnits="userSpaceOnUse"
       gradientTransform="rotate(-90,4.4979166,-4.4979166)" />
    <filter
       inkscape:collect="always"
       style="color-interpolation-filters:sRGB"
       id="filter13702"
       x="-0.47149661"
       width="1.9429932"
       y="-0.44601128"
       height="1.8920226">
      <feGaussianBlur
         inkscape:collect="always"
         stdDeviation="74.068194"
         id="feGaussianBlur13704" />
    </filter>
    <filter
       inkscape:collect="always"
       style="color-interpolation-filters:sRGB"
       id="filter16097"
       x="-0.66272193"
       width="2.3254439"
       y="-0.3634777"
       height="1.7269554">
      <feGaussianBlur
         inkscape:collect="always"
         stdDeviation="81.596571"
         id="feGaussianBlur16099" />
    </filter>
  </defs>
  <sodipodi:namedview
     id="base"
     pagecolor="#ffffff"
     bordercolor="#666666"
     borderopacity="1.0"
     inkscape:pageopacity="0.0"
     inkscape:pageshadow="2"
     inkscape:zoom="0.35"
     inkscape:cx="271.14654"
     inkscape:cy="394.48058"
     inkscape:document-units="mm"
     inkscape:current-layer="layer1"
     showgrid="false"
     inkscape:window-width="1280"
     inkscape:window-height="700"
     inkscape:window-x="0"
     inkscape:window-y="1"
     inkscape:window-maximized="1"
     units="pt"
     width="799px" />
  <metadata
     id="metadata2978">
    <rdf:RDF>
      <cc:Work
         rdf:about="">
        <dc:format>image/svg+xml</dc:format>
        <dc:type
           rdf:resource="http://purl.org/dc/dcmitype/StillImage" />
        <dc:title></dc:title>
      </cc:Work>
    </rdf:RDF>
  </metadata>
  <g
     inkscape:label="Layer 1"
     inkscape:groupmode="layer"
     id="layer1"
     transform="translate(0,-85.333313)">
    <rect
       style="opacity:1;fill:#020f20;fill-opacity:1;fill-rule:nonzero;stroke:none;stroke-width:1.79094923;stroke-miterlimit:4;stroke-dasharray:none;stroke-opacity:1"
       id="rect3528"
       width="316.74405"
       height="319.76785"
       x="-318.92261"
       y="-18.898792"
       transform="rotate(-90)" />
    <path
       style="opacity:1;fill:url(#linearGradient13273);fill-opacity:1;fill-rule:nonzero;stroke:none;stroke-width:1.56500006;stroke-miterlimit:4;stroke-dasharray:none;stroke-opacity:1;filter:url(#filter16097)"
       d="m -14.43867,309.09521 c 0,-105.26632 0,-207.89415 0,-316.7440442 h 244.17262 c 0,66.7277172 -182.011325,45.3825672 -37.42851,71.6915912 48.59313,8.842255 58.75805,28.77983 8.81109,64.567073 -95.37565,68.33712 -83.52203,22.89874 -170.356413,-11.39068 -54.854506,-21.661114 101.786723,106.6994 198.973833,191.87606 -81.40191,-0.008 -246.170702,-60.45699 -244.17262,0 z"
       id="rect13265"
       inkscape:connector-curvature="0"
       sodipodi:nodetypes="cccssscc"
       transform="matrix(0.68575907,0.68575907,-0.37611269,0.37611269,168.62163,17.648849)" />
    <path
       sodipodi:nodetypes="cccssscc"
       inkscape:connector-curvature="0"
       id="path13564"
       d="m -14.43867,309.09521 c 0,-105.26632 0,-207.89415 0,-316.7440442 h 244.17262 c 0,66.7277172 -182.011325,45.3825672 -37.42851,71.6915912 48.59313,8.842255 58.75805,28.77983 8.81109,64.567073 -95.37565,68.33712 -83.52203,22.89874 -170.356413,-11.39068 -54.854506,-21.661114 101.786723,106.6994 198.973833,191.87606 -81.40191,-0.008 -246.170702,-60.45699 -244.17262,0 z"
       style="opacity:1;fill:#6d2175;fill-opacity:1;fill-rule:nonzero;stroke:none;stroke-width:1.56500006;stroke-miterlimit:4;stroke-dasharray:none;stroke-opacity:1;filter:url(#filter13702)"
       transform="matrix(0.42803783,-0.27673061,0.27673061,0.42803783,-88.970134,59.133274)" />
    <path
       transform="matrix(0.3202098,-0.20701874,0.20701874,0.3202098,48.949717,252.44828)"
       style="opacity:1;fill:#6d2175;fill-opacity:1;fill-rule:nonzero;stroke:none;stroke-width:1.56500006;stroke-miterlimit:4;stroke-dasharray:none;stroke-opacity:1;filter:url(#filter13702)"
       d="m -14.43867,309.09521 c 0,-105.26632 0,-207.89415 0,-316.7440442 h 244.17262 c 0,66.7277172 -182.011325,45.3825672 -37.42851,71.6915912 48.59313,8.842255 58.75805,28.77983 8.81109,64.567073 -95.37565,68.33712 -83.52203,22.89874 -170.356413,-11.39068 -54.854506,-21.661114 101.786723,106.6994 198.973833,191.87606 -81.40191,-0.008 -246.170702,-60.45699 -244.17262,0 z"
       id="path14555"
       inkscape:connector-curvature="0"
       sodipodi:nodetypes="cccssscc" />
  </g>
  <g
     inkscape:groupmode="layer"
     id="layer2"
     inkscape:label="Layer 2"
     transform="translate(0,1.6666827)" />
</svg>
