<?xml version="1.0" encoding="UTF-8" standalone="no"?>
<!-- Created with Inkscape (http://www.inkscape.org/) -->

<svg
   xmlns:dc="http://purl.org/dc/elements/1.1/"
   xmlns:cc="http://creativecommons.org/ns#"
   xmlns:rdf="http://www.w3.org/1999/02/22-rdf-syntax-ns#"
   xmlns:svg="http://www.w3.org/2000/svg"
   xmlns="http://www.w3.org/2000/svg"
   xmlns:sodipodi="http://sodipodi.sourceforge.net/DTD/sodipodi-0.dtd"
   xmlns:inkscape="http://www.inkscape.org/namespaces/inkscape"
   width="21mm"
   height="23mm"
   viewBox="0 0 21 23"
   version="1.1"
   id="svg8"
   inkscape:version="0.92.2 5c3e80d, 2017-08-06"
   sodipodi:docname="ziggy.svg"
   inkscape:export-filename="/Users/Dillon/projects/happy_zig/sprite.png"
   inkscape:export-xdpi="96"
   inkscape:export-ydpi="96">
  <defs
     id="defs2" />
  <sodipodi:namedview
     id="base"
     pagecolor="#ffffff"
     bordercolor="#666666"
     borderopacity="1.0"
     inkscape:pageopacity="0.0"
     inkscape:pageshadow="2"
     inkscape:zoom="0.50219314"
     inkscape:cx="293.73189"
     inkscape:cy="261.3349"
     inkscape:document-units="mm"
     inkscape:current-layer="layer1"
     showgrid="false"
     inkscape:window-width="1280"
     inkscape:window-height="700"
     inkscape:window-x="-2"
     inkscape:window-y="0"
     inkscape:window-maximized="0" />
  <metadata
     id="metadata5">
    <rdf:RDF>
      <cc:Work
         rdf:about="">
        <dc:format>image/svg+xml</dc:format>
        <dc:type
           rdf:resource="http://purl.org/dc/dcmitype/StillImage" />
        <dc:title></dc:title>
      </cc:Work>
    </rdf:RDF>
  </metadata>
  <g
     inkscape:label="Layer 1"
     inkscape:groupmode="layer"
     id="layer1"
     transform="translate(0,-274)">
    <g
       inkscape:transform-center-y="0.23890884"
       inkscape:transform-center-x="2.5733309"
       transform="rotate(136.67601,72.026582,72.043252)"
       id="g2933">
      <path
         style="opacity:1;fill:#ee2400;fill-opacity:1;fill-rule:nonzero;stroke:none;stroke-width:2.36892414;stroke-miterlimit:4;stroke-dasharray:none;stroke-opacity:1"
         d="m 90.514302,75.351535 c 0,4.051012 -1.660779,-6.145546 -3.709453,-6.145546 -2.048674,0 -3.709453,10.196558 -3.709453,6.145546 0,-4.051012 1.660779,-11.696363 3.709453,-11.696363 2.048674,0 3.709453,7.645351 3.709453,11.696363 z"
         id="path2929"
         inkscape:connector-curvature="0"
         sodipodi:nodetypes="sssss" />
      <path
         sodipodi:nodetypes="sssss"
         inkscape:connector-curvature="0"
         id="path2931"
         d="m 90.248563,80.171999 c 0,4.051012 -1.542838,-6.145546 -3.446025,-6.145546 -1.903187,0 -3.446025,10.196558 -3.446025,6.145546 0,-4.051012 1.542838,-11.696363 3.446025,-11.696363 1.903187,0 3.446025,7.645351 3.446025,11.696363 z"
         style="opacity:1;fill:#00679a;fill-opacity:1;fill-rule:nonzero;stroke:none;stroke-width:2.28326035;stroke-miterlimit:4;stroke-dasharray:none;stroke-opacity:1" />
    </g>
    <g
       id="g2939"
       transform="rotate(136.67601,72.026582,72.043252)"
       inkscape:transform-center-x="2.5733309"
       inkscape:transform-center-y="0.23890884">
      <path
         sodipodi:nodetypes="sssss"
         inkscape:connector-curvature="0"
         id="path2935"
         d="m 90.514302,75.351535 c 0,4.051012 -1.660779,-6.145546 -3.709453,-6.145546 -2.048674,0 -3.709453,10.196558 -3.709453,6.145546 0,-4.051012 1.660779,-11.696363 3.709453,-11.696363 2.048674,0 3.709453,7.645351 3.709453,11.696363 z"
         style="opacity:1;fill:#ee2400;fill-opacity:1;fill-rule:nonzero;stroke:none;stroke-width:2.36892414;stroke-miterlimit:4;stroke-dasharray:none;stroke-opacity:1" />
      <path
         style="opacity:1;fill:#00679a;fill-opacity:1;fill-rule:nonzero;stroke:none;stroke-width:2.28326035;stroke-miterlimit:4;stroke-dasharray:none;stroke-opacity:1"
         d="m 90.248563,80.171999 c 0,4.051012 -1.542838,-6.145546 -3.446025,-6.145546 -1.903187,0 -3.446025,10.196558 -3.446025,6.145546 0,-4.051012 1.542838,-11.696363 3.446025,-11.696363 1.903187,0 3.446025,7.645351 3.446025,11.696363 z"
         id="path2937"
         inkscape:connector-curvature="0"
         sodipodi:nodetypes="sssss" />
    </g>
    <g
       id="g9058"
       transform="matrix(0.60685969,0,0,0.60685969,-21.352493,241.51115)">
      <g
         transform="translate(-34.160988,-8.7111762)"
         id="g2921">
        <path
           sodipodi:nodetypes="sssss"
           inkscape:connector-curvature="0"
           id="path2915"
           d="m 90.514302,75.351535 c 0,4.051012 -1.660779,-6.145546 -3.709453,-6.145546 -2.048674,0 -3.709453,10.196558 -3.709453,6.145546 0,-4.051012 1.660779,-11.696363 3.709453,-11.696363 2.048674,0 3.709453,7.645351 3.709453,11.696363 z"
           style="opacity:1;fill:#ee2400;fill-opacity:1;fill-rule:nonzero;stroke:none;stroke-width:2.36892414;stroke-miterlimit:4;stroke-dasharray:none;stroke-opacity:1" />
        <path
           style="opacity:1;fill:#00679a;fill-opacity:1;fill-rule:nonzero;stroke:none;stroke-width:2.28326035;stroke-miterlimit:4;stroke-dasharray:none;stroke-opacity:1"
           d="m 90.248563,80.171999 c 0,4.051012 -1.542838,-6.145546 -3.446025,-6.145546 -1.903187,0 -3.446025,10.196558 -3.446025,6.145546 0,-4.051012 1.542838,-11.696363 3.446025,-11.696363 1.903187,0 3.446025,7.645351 3.446025,11.696363 z"
           id="path2917"
           inkscape:connector-curvature="0"
           sodipodi:nodetypes="sssss" />
      </g>
      <g
         id="g2951"
         transform="rotate(-133.32399,67.883331,86.395788)"
         inkscape:transform-center-x="0.23890811"
         inkscape:transform-center-y="-2.5733302">
        <path
           sodipodi:nodetypes="sssss"
           inkscape:connector-curvature="0"
           id="path2947"
           d="m 90.514302,75.351535 c 0,4.051012 -1.660779,-6.145546 -3.709453,-6.145546 -2.048674,0 -3.709453,10.196558 -3.709453,6.145546 0,-4.051012 1.660779,-11.696363 3.709453,-11.696363 2.048674,0 3.709453,7.645351 3.709453,11.696363 z"
           style="opacity:1;fill:#ee2400;fill-opacity:1;fill-rule:nonzero;stroke:none;stroke-width:2.36892414;stroke-miterlimit:4;stroke-dasharray:none;stroke-opacity:1" />
        <path
           style="opacity:1;fill:#00679a;fill-opacity:1;fill-rule:nonzero;stroke:none;stroke-width:2.28326035;stroke-miterlimit:4;stroke-dasharray:none;stroke-opacity:1"
           d="m 90.248563,80.171999 c 0,4.051012 -1.542838,-6.145546 -3.446025,-6.145546 -1.903187,0 -3.446025,10.196558 -3.446025,6.145546 0,-4.051012 1.542838,-11.696363 3.446025,-11.696363 1.903187,0 3.446025,7.645351 3.446025,11.696363 z"
           id="path2949"
           inkscape:connector-curvature="0"
           sodipodi:nodetypes="sssss" />
      </g>
      <g
         inkscape:transform-center-y="0.23890884"
         inkscape:transform-center-x="2.5733309"
         transform="rotate(136.67601,72.026582,72.043252)"
         id="g2927">
        <path
           style="opacity:1;fill:#ee2400;fill-opacity:1;fill-rule:nonzero;stroke:none;stroke-width:2.36892414;stroke-miterlimit:4;stroke-dasharray:none;stroke-opacity:1"
           d="m 90.514302,75.351535 c 0,4.051012 -1.660779,-6.145546 -3.709453,-6.145546 -2.048674,0 -3.709453,10.196558 -3.709453,6.145546 0,-4.051012 1.660779,-11.696363 3.709453,-11.696363 2.048674,0 3.709453,7.645351 3.709453,11.696363 z"
           id="path2923"
           inkscape:connector-curvature="0"
           sodipodi:nodetypes="sssss" />
        <path
           sodipodi:nodetypes="sssss"
           inkscape:connector-curvature="0"
           id="path2925"
           d="m 90.248563,80.171999 c 0,4.051012 -1.542838,-6.145546 -3.446025,-6.145546 -1.903187,0 -3.446025,10.196558 -3.446025,6.145546 0,-4.051012 1.542838,-11.696363 3.446025,-11.696363 1.903187,0 3.446025,7.645351 3.446025,11.696363 z"
           style="opacity:1;fill:#00679a;fill-opacity:1;fill-rule:nonzero;stroke:none;stroke-width:2.28326035;stroke-miterlimit:4;stroke-dasharray:none;stroke-opacity:1" />
      </g>
      <circle
         r="10.524347"
         cy="74.684807"
         cx="52.435463"
         id="path2880"
         style="opacity:1;fill:#1e6b9d;fill-opacity:1;fill-rule:nonzero;stroke:none;stroke-width:1.56500006;stroke-miterlimit:4;stroke-dasharray:none;stroke-opacity:1" />
      <path
         sodipodi:nodetypes="sssss"
         inkscape:connector-curvature="0"
         id="path2905"
         d="m 51.254349,74.498534 c 0,1.903187 -1.542838,-2.88721 -3.446025,-2.88721 -1.903187,0 -3.446025,4.790397 -3.446025,2.88721 0,-1.903187 1.542838,-5.495013 3.446025,-5.495013 1.903187,0 3.446025,3.591826 3.446025,5.495013 z"
         style="opacity:1;fill:#ee2400;fill-opacity:1;fill-rule:nonzero;stroke:none;stroke-width:1.56500006;stroke-miterlimit:4;stroke-dasharray:none;stroke-opacity:1" />
      <path
         style="opacity:1;fill:#ee2400;fill-opacity:1;fill-rule:nonzero;stroke:none;stroke-width:1.56500006;stroke-miterlimit:4;stroke-dasharray:none;stroke-opacity:1"
         d="m 60.77305,74.499026 c 0,1.903187 -1.542838,-2.88721 -3.446025,-2.88721 -1.903187,0 -3.446025,4.790397 -3.446025,2.88721 0,-1.903187 1.542838,-5.495013 3.446025,-5.495013 1.903187,0 3.446025,3.591826 3.446025,5.495013 z"
         id="path2908"
         inkscape:connector-curvature="0"
         sodipodi:nodetypes="sssss" />
      <ellipse
         ry="2.8869267"
         rx="4.9627533"
         cy="79.032249"
         cx="52.741428"
         id="path2953"
         style="opacity:1;fill:#ffce3f;fill-opacity:1;fill-rule:nonzero;stroke:none;stroke-width:1.56500006;stroke-miterlimit:4;stroke-dasharray:none;stroke-opacity:1" />
    </g>
  </g>
</svg>
